<?xml version="1.0" encoding="utf-8"?>
<!-- Generator: Adobe Illustrator 18.1.0, SVG Export Plug-In . SVG Version: 6.00 Build 0)  -->
<svg version="1.1" id="Layer_1" xmlns="http://www.w3.org/2000/svg" xmlns:xlink="http://www.w3.org/1999/xlink" x="0px" y="0px"
	 viewBox="0 0 180.4 458.5" enable-background="new 0 0 180.4 458.5" xml:space="preserve">
<path fill="#931D4D" stroke="#000000" stroke-miterlimit="10" d="M149.3,198.7c0-0.5-0.1-1.2,0-2v0l11-0.1c0,0,9-2.3,6.9,3.3
	c-2.1,5.6-6.4,7.1-12.6,7.4l-2-0.8C150.6,205,149.6,201.5,149.3,198.7z"/>
<path fill="#FDC995" stroke="#000000" stroke-miterlimit="10" d="M174.2,192c4.3-0.5,6.3-5.9,6.2-8.7c-0.1-2.8-1.4-6.8-3.1-6.8
	c-2,0-2.6,0.9-3,2.4c-0.4,1.5,0.1,5.8-0.7,6.2"/>
<path fill="#FDC995" stroke="#000000" stroke-miterlimit="10" d="M168.4,182.8c0.8-2.7,4.3-5.8,4.7-7.3c0.5-2,0.2-4.3-2.8-4.3
	c-3-0.1-4.7,6.3-6.6,7.8c-1.9,1.5-6.2,1.9-6.2,1.9l-4.9,3.4l0.9,3.5l1,9.5l2.3,4.5l7.2-3.2l8.1-6.5l-1.9-8.7L168.4,182.8z"/>
<path fill="#FDC995" stroke="#000000" stroke-miterlimit="10" d="M166.4,199.1c4.6,0.9,8.3-3,8.3-5.9c0-2.9-0.7-6.8-0.9-7.4
	c-0.2-0.5-1.4-3.4-3.2-3.5c-1.9-0.1-3.4,0.8-2.9,4.8s0.9,8.4-1.7,7.6C163.3,193.9,166.4,199.1,166.4,199.1z"/>
<path fill="#FDC995" stroke="#000000" stroke-miterlimit="10" d="M153.3,185.1l-6.6,5.3l3,7.1c4.3,6,7.9,5.8,10.6,5.2
	s6.9-2.2,6.9-7.2s-0.9-6.8-2.8-8.8c-1.8-2-4-0.8-4.2,0.8c-0.1,0.5-0.1,0.9-0.1,1.3c0,0.9,0.1,1.5,0.5,2.5c1.3,3-0.4,5.7-1,5.9
	c-0.3-0.1,2.2-6.2-3.1-11.6C153.9,183.3,153.3,185.1,153.3,185.1z"/>
<path fill="#FDC995" stroke="#000000" stroke-miterlimit="10" d="M49.4,62.7c0.6-0.2,2.1-1.2,4.3,0.1c1.7,0.9,5.5,12.5,5.5,10.8
	c0-1.7-1.8-11.7-2.3-16.5c-0.5-4.8,0-23.5,0-23.5l5.3,1v-8.5l12.3,8.5l4.3-7.5l7.7,6.2c0,0,2.7-1.2,3.5-5.8c3,0.5,8.2,4.2,8.2,4.2
	s1.2-2.8,1.2-6.2c0,0,4.2,4.7,7.8,7.7c0,0,1.5-0.2,3.5-3c0,0,0.1,0.1,0.3,0.3c0.5,12.2,1.7,41.4-0.1,45.5c-2,4.5-5.2,4.5-5.2,4.5
	c-2.9,0.5-26.7-1.2-30.6-0.8c-3.9,0.3-3.5,1.2-3.5,2.2c0,2.1,5.7,1.9,5.7,1.9l27.6,0h1.2c0,1.2-0.1,2.6-0.5,4
	c-2.7,9.5-9.3,21-10.2,37.9l-1,24.5L77.8,129c0,0-15-6-14.2-16.3c0.8-10.3-2.3-31.5-4.5-34.5c-1.5,4-10,2-10.8-3
	C47.5,70.2,46.8,63.9,49.4,62.7z"/>
<path fill="#A3572A" stroke="#000000" stroke-miterlimit="10" d="M78.7,7.9c3.3-2.2,5-5,5.2-7.8C84.7-0.4,91,5.7,91,5.7l8.5-4.5
	c0,0-0.2,3.3-1,4.3c1.8-0.2,11.8,0.7,11.8,0.7c-2.2,1.5-4,4-4,4c7.5,4.7,9.5,8.2,11,10.7c-1.3,0.5-4,0-4,0s2.8,6.2,1,13.3
	c-1.8-2.3-3.8-4.5-3.8-4.5c-2,2.8-3.5,3-3.5,3c-3.7-3-7.8-7.7-7.8-7.7c0,3.3-1.2,6.2-1.2,6.2s-5.2-3.7-8.2-4.2
	c-0.8,4.7-3.5,5.8-3.5,5.8l-7.7-6.2l-4.3,7.5L62,25.7v8.5l-5.3-1c0,0-0.5,18.7,0,23.5S59,71.5,59,73.2c0,1.7-4-10.8-5.5-10.8
	s-2.9-1.6-2.9-1.6l-0.1-10.9c-2.2,0-4,1.5-4,1.5C46,38,49.7,27.9,49.7,27.9h-2.2l3.7-6.2l-1.5-3h2.5v-6.3l3.3,2.2l7-6.2L62,12.5
	C67.2,7.5,78.7,7.9,78.7,7.9z"/>
<path fill="#F1F2F2" stroke="#000000" stroke-miterlimit="10" d="M68.5,53.3c0,4.7,2.9,8.6,6.4,8.6c3.6,0,6.4-3.8,6.4-8.6
	s-1.8-8.5-6.4-8.6C70,44.7,68.5,48.5,68.5,53.3z"/>
<path fill="#B83666" stroke="#000000" stroke-miterlimit="10" d="M3.3,205.9c3.3,10.8,22.2,41.9,22.2,41.9s5.3,1.8,13.5-1l-0.3,29.9
	c0,0,3.2-0.7,7.3,1c19,14.2,45.7,12.7,52.3,12c0,0,16.7-1.3,24-11.8l-2.7-85.3c0,0,26.2,14.8,35,14.8c-3.3-0.2-5-5-5.3-8.7
	c-0.3-3.7,1.6-15.7,10.8-18.5c-3.5-4.2-9.5-3.3-19.6-4.7c0,0,0-1.4-1-3.9S118,140,115.7,136.9c-1.9-2.6-4.6-6.1-9.9-7.9
	c1.3,7.2,2.6,15.6,2.6,15.6l-12.5-18l-0.1,0l23.6,45.6c0.8,1.1-0.5,2-2.8,1.8s-12,1.6-13.2,5.4s1.5,4.8,5.4,6.1s6.8,4.4,7.1,6.8
	c0.6,4.6-9,7.5-11.4,10.2s-1.5,6.4-0.2,7.6c0,0,6.8,3.8,8.8,6.1s2.4,5.2-1.4,6.9c-3.8,1.6-5.6,2.9-6.9,4.4s-2.6,5.2,0,7.5
	s8.5,4.8,10.8,8.1s3.5,5.2-1.4,9.2c-4.9,4-9.4,6.8-12.1,6s-3.1-4.5-4.1-12.9c-1,12.3-2.2,13.1-4.6,13.9s-16.4-6.5-18.5-10.5
	s-4.4-6.9-1.1-9.1s7.4-2.4,10.8-4.8s4.9-5.8-2-7.4s-7.4-1.5-10.8-3.5s-6.4-7.2,0.6-9.8s6-1.6,9.8-2.5s6.5-5-2.4-8
	s-10.4-5.2-10.4-5.2c-3.8-4.4-0.6-7.2,2-8.1s16.2-4.2,16.2-7.5c0-4.2-14.4-7.6-20.5-10.1c-4.6-1.4,9.1-34.8,16.2-45.9
	c-6.5-3.2-11.2,14.3-13.7,19.3c-5.4-1.5-13-18.8-14.1-25.4c-6,2-19.5,10.2-25.3,16.4c-6.5,7-23.8,34.2-27.8,43
	C-1.7,189,0,195,3.3,205.9z M29.5,194.4c-0.3-3.3,7.8-14,11.8-20l-1.8,37C39.5,211.4,29.8,197.7,29.5,194.4z"/>
<path fill="#F1F2F2" stroke="#000000" stroke-miterlimit="10" d="M99.8,55c0,4.7,2.9,8.6,6.4,8.6s6.4-3.8,6.4-8.6s-1.8-8.5-6.4-8.6
	C101.3,46.4,99.8,50.2,99.8,55z"/>
<path fill="none" stroke="#000000" stroke-width="2" stroke-miterlimit="10" d="M63.3,53.3c-0.5,6.3,2.3,11.6,6.9,13.7
	c1.8,0.8,5.1,0.8,6.9,0.2c6.7-2.1,8.6-9.4,8.6-18.4H63.7L63.3,53.3z"/>
<path fill="#F7F5E2" stroke="#000000" stroke-miterlimit="10" d="M63.2,109.2c5.8,5.1,15,9.1,18.1,11.8c2.7,2.2,11.2,22.1,11.2,22.1
	s-0.5-17.4,0-18.5s2.6-3.1,3.2-5.6c0.5-2.1,1.1-4.7,1.6-6.8c2.8,0.6,5.6,3.7,6.6,7s4.5,25.4,4.5,25.4l-12.8-18.3l23.8,45.9
	c0.8,1.1-0.5,2-2.8,1.8s-12,1.6-13.2,5.4s1.5,4.8,5.4,6.1s6.8,4.4,7.1,6.8c0.6,4.6-9,7.5-11.4,10.2s-1.5,6.4-0.2,7.6
	c0,0,6.8,3.8,8.8,6.1s2.4,5.2-1.4,6.9s-5.6,2.9-6.9,4.4s-2.6,5.2,0,7.5s8.5,4.8,10.8,8.1s3.5,5.2-1.4,9.2c-4.9,4-9.4,6.7-12.1,6
	s-3.1-4.5-4.1-12.9c-1,12.2-2.2,13.1-4.6,13.9s-16.4-6.5-18.5-10.5s-4.4-6.9-1.1-9.1s7.4-2.4,10.8-4.8s4.9-5.8-2-7.4
	s-7.4-1.5-10.8-3.5s-6.4-7.2,0.6-9.8s6-1.6,9.8-2.5s6.5-5-2.4-8s-10.4-5.2-10.4-5.2c-3.8-4.4-0.6-7.2,2-8.1s16.2-4.2,16.2-7.5
	c0-4.2-14.4-7.6-20.5-10.1c-4.9-1.5,7.6-34.2,14.6-43.5c0.1-0.8-7.3,7.4-12.1,16.9c-5.9-1.6-14.2-21.8-14.2-26.8
	S63.2,109.2,63.2,109.2z"/>
<path fill="none" stroke="#000000" stroke-width="2" stroke-miterlimit="10" d="M96.1,48.9h17.2c-0.2,14.8-1.2,19.3-6.6,19.8
	c-4.6,0.5-9.1-1.8-9.8-6.9C95.8,53.4,96.1,48.9,96.1,48.9z"/>
<path fill="none" stroke="#000000" stroke-width="2" stroke-miterlimit="10" d="M96.5,56.5c-3.7-2.1-11.4-0.4-11.4-0.4"/>
<line fill="none" stroke="#000000" stroke-width="2" stroke-miterlimit="10" x1="54" y1="62.7" x2="63.3" y2="53.3"/>
<circle cx="104.1" cy="53.6" r="1.4"/>
<circle cx="72.6" cy="53.3" r="1.4"/>
<line fill="none" stroke="#000000" stroke-miterlimit="10" x1="80.8" y1="45.4" x2="67.9" y2="43.6"/>
<line fill="none" stroke="#000000" stroke-miterlimit="10" x1="99.8" y1="45.4" x2="112.6" y2="46"/>
<path fill="none" stroke="#000000" stroke-miterlimit="10" d="M98.3,65.7c0,6.2-2.5,8.7-5,9.4s-6.9,0.6-8.2-3.6"/>
<path fill="#A3572A" stroke="#000000" stroke-miterlimit="10" d="M94.7,87.8h-6.8c0,3.4,2.7,4.7,3,5.7
	C91.5,92.4,94.7,91.3,94.7,87.8z"/>
<ellipse fill="#FEF6C7" stroke="#000000" stroke-miterlimit="10" cx="51.9" cy="78.8" rx="2.9" ry="2.8"/>
<path fill="none" stroke="#000000" stroke-miterlimit="10" d="M51.9,65.2c-1.2-1.2-3.7,2.7-1.7,6.3"/>
<g>
	<path fill="#E5E0BB" stroke="#000000" stroke-miterlimit="10" d="M84.5,234.9c-3.4,2.4-7.5,2.5-10.8,4.8c-1,0.7-1.5,1.5-1.6,2.4
		c0.3-9.3,0.9-15,1.2-17.1c2.2,1.1,3.5,1.3,9.2,2.6C89.3,229.2,87.8,232.5,84.5,234.9z"/>
	<path fill="#E5E0BB" stroke="#000000" stroke-miterlimit="10" d="M103.5,179.3c0.5-1.6,2.7-2.9,5.2-3.8c4.1,6.7,7.1,13.9,7.1,15.8
		c0,0,0,0,0,0c-0.8-2.2-3.5-4.7-6.9-5.9C105,184,102.2,183,103.5,179.3z"/>
	<path fill="#E5E0BB" stroke="#000000" stroke-miterlimit="10" d="M82.1,211.8c-3.8,0.9-2.8,0-9.8,2.5c-2.9,1-4.1,2.5-4.2,4.1
		c0.3-6.7,0.9-14.7,1.4-19.7c0.5,0.5,2.7,2.5,10.3,5.1C88.6,206.8,85.8,210.9,82.1,211.8z"/>
	<path fill="#E5E0BB" stroke="#000000" stroke-miterlimit="10" d="M87.6,182.9c0,3.2-13.6,6.6-16.2,7.5c-1.9,0.6-4,2.3-3.7,4.8
		l-0.6,0.3c0,0,0.4-14.3,1.2-22.3C74.7,175.7,87.6,178.9,87.6,182.9z"/>
	<path fill="#E5E0BB" stroke="#000000" stroke-miterlimit="10" d="M104.6,202.4c0.8-0.9,2.5-1.9,4.3-2.9c1.6,4.6,5.7,16.7,5.5,18.9
		c-0.2-0.8-0.7-1.5-1.3-2.2c-2-2.4-8.8-6.1-8.8-6.1C103.1,208.8,102.2,205.2,104.6,202.4z"/>
	<path fill="#E5E0BB" stroke="#000000" stroke-miterlimit="10" d="M115.6,243c-2.2-3.4-8.1-5.9-10.8-8.1s-1.2-6,0-7.5
		c1.2-1.5,3-2.7,6.6-4.3c1.6,5,6.6,24.4,6.1,24.7C117.7,246.3,116.8,244.9,115.6,243z"/>
</g>
<path fill="none" stroke="#000000" stroke-miterlimit="10" d="M103.8,182.8c-6.9-1.1-7.8-36-7.8-36"/>
<path fill="none" stroke="#000000" stroke-miterlimit="10" d="M85.6,146.8c1.9,12.9,2,36.1,2,36.1"/>
<line fill="none" stroke="#000000" stroke-miterlimit="10" x1="102.1" y1="193.7" x2="103.2" y2="207.3"/>
<line fill="none" stroke="#000000" stroke-miterlimit="10" x1="86.1" y1="192.5" x2="85.6" y2="208.9"/>
<line fill="none" stroke="#000000" stroke-miterlimit="10" x1="87" y1="220.2" x2="87.3" y2="231.3"/>
<path fill="#FDC995" stroke="#000000" stroke-miterlimit="10" d="M52.3,231.3c12.2,0.4,27.2,5.9,25.8,16.4c-0.8,3.6-3.9,1.2-4.8-0.6
	c-0.8-1.7-4-5.8-8.7-7.7c-0.1,0-0.2,0.1-0.1,0.2c4.7,3.9,8,7.8,7,15.6c-0.5,4.2-5.5,2.8-5.8-0.4c-0.2-2.4,1.1-4.2-6.5-9.2
	c0,0,3.4,2.2,4.3,5.8c0.6,4.8-1,7.7-4.8,8.8s-4.5,0-4.4-1.4c0-1.6,1.9-2.7,1.8-4.5s-1.6-4.3-6.4-4.1S39.3,250,39,246.8
	C51.3,241.2,52.3,231.3,52.3,231.3z"/>
<path fill="#620B26" stroke="#000000" stroke-miterlimit="10" d="M39.8,299.7c0.2-8.8,0.4-18.5,0.5-23.1c1.3,0,3.4,0.2,5.7,1.1
	c19,14.2,45.7,12.7,52.3,12c0,0,5.9-0.5,12.1-3c-0.5,20.2-9.5,80.7-10.3,90.5c-0.8,10-4.5,44.7-4.5,44.7l-24-1.7l2.5-78.5
	c0,0-5.2,15.7-6.3,20.7c-1.2,5-14,67-14,67l-24.3-2.2c0.7-25.8,6.3-52.7,6.7-61.2C36.5,357.5,39.5,311.7,39.8,299.7z"/>
<path fill="#312128" stroke="#000000" stroke-miterlimit="10" d="M95.7,421.9c5.7,5,14.3,9.3,19.7,10.9s8,3.4,8.1,5.2
	s1.2,4.5-6.8,6.4s-31.6-5.1-31.6-5.1v2.1c-2.1,1.4-9.9,0.8-12-1c-0.8-3.2,0-20.1,0-20.1L95.7,421.9z"/>
<path fill="#312128" stroke="#000000" stroke-miterlimit="10" d="M50.5,429.1c5,11,6.4,22,5.9,26.6c-5.9,4.9-31.4,2.5-32.4,0
	s-0.5-8.6,0.9-10.9s5.2-6.6,6-9.4s1.3-7.8,1.3-7.8L50.5,429.1z"/>
<path fill="#312128" stroke="#000000" stroke-miterlimit="10" d="M24,455.7c-0.4-1-0.5-2.4-0.5-4c2.7,1.1,7.8,2.4,10.5,2.9
	c3,0.6,16.5,1.5,22.4-2.3c0.1,1.4,0,2.5-0.1,3.5C50.5,460.5,25,458.2,24,455.7z"/>
<path fill="#312128" stroke="#000000" stroke-miterlimit="10" d="M116.8,444.4c-8,1.9-31.6-5.1-31.6-5.1v2.1c-2.1,1.4-9.9,0.8-12-1
	c-0.2-0.7-0.3-2-0.3-3.6c1.6,1.9,8.3,1.5,12.9,1.2c4.6-0.2,19.1,3,23,3.5s12.3,1.4,14.8-3.5C123.6,439.9,124.8,442.5,116.8,444.4z"
	/>
<path fill="none" stroke="#000000" stroke-miterlimit="10" d="M140.5,175.5c-5.2,0.4-8.3,4.6-8.3,4.6"/>
<line fill="none" stroke="#000000" stroke-miterlimit="10" x1="119.7" y1="192.5" x2="119.7" y2="154"/>
<line fill="none" stroke="#000000" stroke-miterlimit="10" x1="41.3" y1="174.4" x2="47.5" y2="166"/>
<line fill="none" stroke="#000000" stroke-miterlimit="10" x1="39.5" y1="211.4" x2="52.3" y2="231.3"/>
<line fill="none" stroke="#000000" stroke-miterlimit="10" x1="99" y1="289.6" x2="98" y2="245.4"/>
<path fill="none" stroke="#000000" stroke-miterlimit="10" d="M96.8,303.7c-10,0.2-13.5-0.8-14.3,4c-0.8,4.8-8.3,34-8.3,34"/>
<path fill="none" stroke="#000000" stroke-miterlimit="10" d="M49.5,434.5c-13.7-1-15.5,0-15.5,0"/>
<path fill="none" stroke="#000000" stroke-miterlimit="10" d="M32.3,438.2c12.5-0.2,17.2,0,17.2,0"/>
<path fill="none" stroke="#000000" stroke-miterlimit="10" d="M102.7,427.4c0,0-2,0.6-3.5,3.3"/>
<path fill="none" stroke="#000000" stroke-miterlimit="10" d="M99.2,424.6c0,0-2.2,0.9-4.2,2.8"/>
<path fill="#FDC995" stroke="#000000" stroke-miterlimit="10" d="M159.7,192"/>
</svg>
